<svg width="20" height="20" viewBox="0 0 20 20" fill="none" xmlns="http://www.w3.org/2000/svg">
<path d="M16.1188 8.425C15.8813 8.18125 15.6375 7.925 15.5437 7.70625C15.45 7.4875 15.4563 7.1625 15.45 6.83125C15.4438 6.225 15.4313 5.53125 14.95 5.05C14.4688 4.56875 13.775 4.55625 13.1687 4.55C12.8375 4.54375 12.5 4.5375 12.2937 4.45625C12.0875 4.375 11.8188 4.11875 11.575 3.88125C11.1438 3.46875 10.65 3 10 3C9.35 3 8.85625 3.46875 8.425 3.88125C8.18125 4.11875 7.925 4.3625 7.70625 4.45625C7.4875 4.55 7.1625 4.54375 6.83125 4.55C6.225 4.55625 5.53125 4.56875 5.05 5.05C4.56875 5.53125 4.55625 6.225 4.55 6.83125C4.54375 7.1625 4.5375 7.5 4.45625 7.70625C4.375 7.9125 4.11875 8.18125 3.88125 8.425C3.46875 8.85625 3 9.35 3 10C3 10.65 3.46875 11.1438 3.88125 11.575C4.11875 11.8188 4.3625 12.075 4.45625 12.2937C4.55 12.5125 4.54375 12.8375 4.55 13.1687C4.55625 13.775 4.56875 14.4688 5.05 14.95C5.53125 15.4313 6.225 15.4438 6.83125 15.45C7.1625 15.4563 7.5 15.4625 7.70625 15.5437C7.9125 15.625 8.18125 15.8813 8.425 16.1188C8.85625 16.5312 9.35 17 10 17C10.65 17 11.1438 16.5312 11.575 16.1188C11.8188 15.8813 12.075 15.6375 12.2937 15.5437C12.5125 15.45 12.8375 15.4563 13.1687 15.45C13.775 15.4438 14.4688 15.4313 14.95 14.95C15.4313 14.4688 15.4438 13.775 15.45 13.1687C15.4563 12.8375 15.4625 12.5 15.5437 12.2937C15.625 12.0875 15.8813 11.8188 16.1188 11.575C16.5312 11.1438 17 10.65 17 10C17 9.35 16.5312 8.85625 16.1188 8.425Z" fill="#059669"/>
<path d="M7 10.5L9 12.5L12.5 8" stroke="white" stroke-width="2" stroke-linecap="round" stroke-linejoin="round"/>
</svg>
