<svg width="20" height="20" viewBox="0 0 20 20" fill="none" xmlns="http://www.w3.org/2000/svg">
<path d="M10.1853 1.6665H9.81862C9.37659 1.6665 8.95267 1.8421 8.64011 2.15466C8.32755 2.46722 8.15196 2.89114 8.15196 3.33317V3.48317C8.15166 3.77544 8.0745 4.0625 7.92824 4.31554C7.78197 4.56857 7.57174 4.7787 7.31862 4.92484L6.96029 5.13317C6.70692 5.27945 6.41952 5.35646 6.12696 5.35646C5.83439 5.35646 5.54699 5.27945 5.29362 5.13317L5.16862 5.0665C4.78618 4.84589 4.33182 4.78604 3.90529 4.90009C3.47876 5.01415 3.11491 5.29278 2.89362 5.67484L2.71029 5.9915C2.48967 6.37395 2.42982 6.82831 2.54388 7.25484C2.65793 7.68137 2.93657 8.04521 3.31862 8.2665L3.44362 8.34984C3.69552 8.49526 3.90497 8.70408 4.05116 8.95553C4.19736 9.20698 4.2752 9.49231 4.27696 9.78317V10.2082C4.27812 10.5019 4.20166 10.7906 4.05532 11.0453C3.90899 11.2999 3.69796 11.5113 3.44362 11.6582L3.31862 11.7332C2.93657 11.9545 2.65793 12.3183 2.54388 12.7448C2.42982 13.1714 2.48967 13.6257 2.71029 14.0082L2.89362 14.3248C3.11491 14.7069 3.47876 14.9855 3.90529 15.0996C4.33182 15.2136 4.78618 15.1538 5.16862 14.9332L5.29362 14.8665C5.54699 14.7202 5.83439 14.6432 6.12696 14.6432C6.41952 14.6432 6.70692 14.7202 6.96029 14.8665L7.31862 15.0748C7.57174 15.221 7.78197 15.4311 7.92824 15.6841C8.0745 15.9372 8.15166 16.2242 8.15196 16.5165V16.6665C8.15196 17.1085 8.32755 17.5325 8.64011 17.845C8.95267 18.1576 9.37659 18.3332 9.81862 18.3332H10.1853C10.6273 18.3332 11.0512 18.1576 11.3638 17.845C11.6764 17.5325 11.852 17.1085 11.852 16.6665V16.5165C11.8523 16.2242 11.9294 15.9372 12.0757 15.6841C12.2219 15.4311 12.4322 15.221 12.6853 15.0748L13.0436 14.8665C13.297 14.7202 13.5844 14.6432 13.877 14.6432C14.1695 14.6432 14.4569 14.7202 14.7103 14.8665L14.8353 14.9332C15.2177 15.1538 15.6721 15.2136 16.0986 15.0996C16.5252 14.9855 16.889 14.7069 17.1103 14.3248L17.2936 13.9998C17.5142 13.6174 17.5741 13.163 17.46 12.7365C17.346 12.31 17.0673 11.9461 16.6853 11.7248L16.5603 11.6582C16.3059 11.5113 16.0949 11.2999 15.9486 11.0453C15.8022 10.7906 15.7258 10.5019 15.727 10.2082V9.7915C15.7258 9.49782 15.8022 9.20904 15.9486 8.95441C16.0949 8.69978 16.3059 8.48835 16.5603 8.3415L16.6853 8.2665C17.0673 8.04521 17.346 7.68137 17.46 7.25484C17.5741 6.82831 17.5142 6.37395 17.2936 5.9915L17.1103 5.67484C16.889 5.29278 16.5252 5.01415 16.0986 4.90009C15.6721 4.78604 15.2177 4.84589 14.8353 5.0665L14.7103 5.13317C14.4569 5.27945 14.1695 5.35646 13.877 5.35646C13.5844 5.35646 13.297 5.27945 13.0436 5.13317L12.6853 4.92484C12.4322 4.7787 12.2219 4.56857 12.0757 4.31554C11.9294 4.0625 11.8523 3.77544 11.852 3.48317V3.33317C11.852 2.89114 11.6764 2.46722 11.3638 2.15466C11.0512 1.8421 10.6273 1.6665 10.1853 1.6665Z" stroke="#A8A29E" stroke-width="1.7" stroke-linecap="round" stroke-linejoin="round"/>
<path d="M10.0022 12.4998C11.383 12.4998 12.5022 11.3805 12.5022 9.99979C12.5022 8.61908 11.383 7.49979 10.0022 7.49979C8.62153 7.49979 7.50224 8.61908 7.50224 9.99979C7.50224 11.3805 8.62153 12.4998 10.0022 12.4998Z" stroke="#A8A29E" stroke-width="1.7" stroke-linecap="round" stroke-linejoin="round"/>
</svg>
