<svg width="16" height="16" viewBox="0 0 16 16" fill="none" xmlns="http://www.w3.org/2000/svg">
<path d="M12 5.3335C12 4.27263 11.5786 3.25521 10.8284 2.50507C10.0783 1.75492 9.06087 1.3335 8 1.3335C6.93913 1.3335 5.92172 1.75492 5.17157 2.50507C4.42143 3.25521 4 4.27263 4 5.3335C4 10.0002 2 11.3335 2 11.3335H14C14 11.3335 12 10.0002 12 5.3335Z" stroke="#0284C7" stroke-width="1.5" stroke-linecap="round" stroke-linejoin="round"/>
<path d="M9.1531 14.0001C9.03589 14.2022 8.86766 14.3699 8.66525 14.4865C8.46284 14.6031 8.23335 14.6644 7.99977 14.6644C7.76618 14.6644 7.5367 14.6031 7.33428 14.4865C7.13187 14.3699 6.96364 14.2022 6.84644 14.0001" stroke="#0284C7" stroke-width="1.5" stroke-linecap="round" stroke-linejoin="round"/>
</svg>
